<svg xmlns="http://www.w3.org/2000/svg" width="1024" height="1024"><path d="M484 490l1-82-87 11z" fill="#f8f8f8" stroke="#eee" stroke-width="1.5"/><path d="M398 419v75l86-4zm87-11l-58-108-29 119zm-87 11l-111 80 111-5z" fill="#fff" stroke="#eee" stroke-width="1.5"/><path d="M427 300l-122 94 93 25zm-29 194l-15 107 101-111z" fill="#fff" stroke="#eee" stroke-width="1.5"/><path d="M287 499l96 102 15-107zm18-105l-18 105 111-80zm180 14l53-117-111 9zm141 0l-88-117-53 117zm-142 82l142-82H485zm152 50l-10-132-142 82zm-253 61l127 28-26-139z" fill="#fff" stroke="#eee" stroke-width="1.5"/><path d="M510 629l126-89-152-50zm116-221l-4-100-84-17z" fill="#f8f8f8" stroke="#eee" stroke-width="1.5"/><path d="M708 296l-86 12 4 100zm-281 4l-146-22 24 116zm-270 87l41 152 89-40z" fill="#fff" stroke="#eee" stroke-width="1.5"/><path d="M377 180l-96 98 146 22zm133 449l127-29-1-60zM287 499l-9 137 105-35zm96 102l2 128 125-100z" fill="#fff" stroke="#eee" stroke-width="1.5"/><path d="M198 539l80 97 9-137zm340-248l-14-88-97 97z" fill="#fff" stroke="#eee" stroke-width="1.5"/><path d="M622 308l-98-105 14 88zm-465 79l130 112 18-105zm480 213l76-106-77 46z" fill="#f8f8f8" stroke="#eee" stroke-width="1.5"/><path d="M636 540l77-46-87-86zM524 203l-147-23 50 120zM278 636l107 93-2-128zm232-7l86 80 41-109zM385 729l137-1-12-99z" fill="#fff" stroke="#eee" stroke-width="1.5"/><path d="M713 494l23-80-110-6zm-91-186l25-150-123 45zm-341-30L157 387l148 7z" fill="#fff" stroke="#eee" stroke-width="1.5"/><path d="M180 275l-23 112 124-109zm342 453l74-19-86-80zm115-128l126 51-50-157zm99-186l-28-118-82 112z" fill="#fff" stroke="#eee" stroke-width="1.5"/><path d="M185 170l-5 105 101 3zm12 589l92-31-11-92z" fill="#f8f8f8" stroke="#eee" stroke-width="1.5"/><path d="M278 636l11 92 96 1zm-80-97l-31 96 111 1z" fill="#fff" stroke="#eee" stroke-width="1.5"/><path d="M58 621l109 14 31-96zm319-441l-97-30 1 128z" fill="#fff" stroke="#eee" stroke-width="1.5"/><path d="M392 68l-112 82 97 30zm132 135L392 68l-15 112zm184 93l-61-138-25 150zm-551 91l-79 29 120 123z" fill="#fff" stroke="#eee" stroke-width="1.5"/><path d="M89 301L78 416l79-29zm507 408l167-58-126-51zm117-215l124 37-101-117z" fill="#f8f8f8" stroke="#eee" stroke-width="1.5"/><path d="M180 275l-91 26 68 86zm100-125l-95 20 96 108z" fill="#fff" stroke="#eee" stroke-width="1.5"/><path d="M280 150L158 84l27 86zM526 49L392 68l132 135zM81 151l8 150 91-26zm743 149l-116-4 28 118z" fill="#fff" stroke="#eee" stroke-width="1.5"/><path d="M824 300l-84-105-32 101z" fill="#f8f8f8" stroke="#eee" stroke-width="1.5"/><path d="M708 296l32-101-93-37zM167 635l30 124 81-123zm122 93l109 127-13-126z" fill="#fff" stroke="#eee" stroke-width="1.5"/><path d="M385 729l13 126 124-127zM52 762l145-3-30-124zm711-111l74-120-124-37zm74-120l8-151-109 34zM78 416l-33 91 153 32zM-25 533l70-26-81-102z" fill="#fff" stroke="#eee" stroke-width="1.5"/><path d="M845 380l-21-80-88 114zM613 72l-89 131 123-45z" fill="#fff" stroke="#eee" stroke-width="1.5"/><path d="M613 72l-87-23-2 154zM269 873l129-18-109-127zm253-145l4 148 70-167zm74-19l167 14v-72zM715 35L613 72l34 86zm0 795l48-107-167-14zm48-179l93-43-19-77zM392 68l-95-15-17 97z" fill="#f8f8f8" stroke="#eee" stroke-width="1.5"/><path d="M413-60L297 53l95 15zM45 507l13 114 140-82zm353 348l128 21-4-148zm439-324l114-9-106-142zm40 219l-21-142-93 43zM398 855l6 117 122-96zm-201-96l72 114 20-145z" fill="#fff" stroke="#eee" stroke-width="1.5"/><path d="M184 869l85 4-72-114zm1-699L81 151l99 124zM297 53L158 84l122 66zm466 670l114 27-114-99zM646 879l69-49-119-121z" fill="#fff" stroke="#eee" stroke-width="1.5"/><path d="M158 84l-77 67 104 19zM-36 405l81 102 33-91zm860-105l12-118-96 13zm-84-105L715 35l-68 123z" fill="#fff" stroke="#eee" stroke-width="1.5"/><path d="M948 181l-112 1-12 118zm38 80l-162 39 21 80zM639 971l7-92-120-3z" fill="#f8f8f8" stroke="#eee" stroke-width="1.5"/><path d="M526 876l120 3-50-170zM45 507l-70 26 83 88zm24 336l115 26 13-110zM-36 405l114 11 11-115z" fill="#fff" stroke="#eee" stroke-width="1.5"/><path d="M-24 270l-12 135L89 301zM526 49L413-60 392 68zm-229 4l-28-92L158 84zm316 19L537-31l-11 80z" fill="#fff" stroke="#eee" stroke-width="1.5"/><path d="M646-76L537-31l76 103zM828 60L715 35l25 160zM52 762l115-127-109-14zm-77-229l-5 62 88 26z" fill="#fff" stroke="#eee" stroke-width="1.5"/><path d="M-149 643l119-48 5-62zM81 151L-24 270l113 31zM-36 726l88 36 6-141zM537-31L413-60 526 49zm319 639l95-86-114 9zm129 33l-34-119-95 86zM413-60L269-39l28 92zM158 84L64 60l17 91zm141 905l99-134-129 18zm0 0l105-17-6-117zm545-141l33-98-114-27z" fill="#f8f8f8" stroke="#eee" stroke-width="1.5"/><path d="M844 848l-81-125-48 107zm107-326l30-132-136-10zM404 972l124 10-2-106zm242-93l96 63-27-112zM81 151l-160 15 55 104zm92-222L64 60l94 24zM715 35L646-76 613 72zm121 147l-8-122-88 135z" fill="#fff" stroke="#eee" stroke-width="1.5"/><path d="M948 181L828 60l8 122zM52 762l17 81 128-84zm143 213l104 14-30-116z" fill="#fff" stroke="#eee" stroke-width="1.5"/><path d="M-57 831l126 12-17-81zm-92-188l113 83 6-131zm119-48l-6 131 94-105zm558 387l111-11-113-95zm-333-7l74-102-85-4zm209-3l131 93-7-83zM717-64l-71-12 69 111zM537-31l-48-137-76 108zm205 973l102-94-129-18zm244-681l-38-80-124 119zm-5 129l5-129-141 119zM877 750l108-109-129-33zm74-228l112 5-82-137zm30-132l88-14-83-115zm-25 362l29-111-108 109zM639 971l103-29-96-63z" fill="#fff" stroke="#eee" stroke-width="1.5"/><path d="M846-70l-129 6-2 99zm0 0L715 35l113 25zM71 951l124 24-11-106zM269-39l-96-32-15 155z" fill="#f8f8f8" stroke="#eee" stroke-width="1.5"/><path d="M260-185L173-71l96 32z" fill="#fff" stroke="#eee" stroke-width="1.5"/><path d="M260-185l9 146 144-21zM991 831l-35-79-112 96z" fill="#fff" stroke="#eee" stroke-width="1.5"/><path d="M844 848l112-96-79-2zM-51 72l-28 94 160-15zm-108 227l4 96 119 10zm123 106l-152 89 163 39z" fill="#fff" stroke="#eee" stroke-width="1.5"/><path d="M-51 72l132 79-17-91zm-108 227l123 106 12-135zm439 755l103-3-84-62z" fill="#f8f8f8" stroke="#eee" stroke-width="1.5"/><path d="M299 989l84 62 21-79zm229-7l7 83 104-94zm111-11l106 105-3-134zm7-1047l-157-92 48 137z" fill="#fff" stroke="#eee" stroke-width="1.5"/><path d="M638-187l-149 19 157 92zm448 808l-23-94-78 114z" fill="#fff" stroke="#eee" stroke-width="1.5"/><path d="M985 641l78-114-112-5zm-602 410l152 14-131-93zm-523-870l-19 118 135-29z" fill="#fff" stroke="#eee" stroke-width="1.5"/><path d="M-79 166l-61 15 116 89zM32-70L-51 72 64 60zm-220 564l152-89-119-10zm0 0l39 149 124-110zm112 439l147 18-2-108z" fill="#f8f8f8" stroke="#eee" stroke-width="1.5"/><path d="M69 843l2 108 113-82zm-126-12l109-69-88-36zm252 144l85 79 19-65zm868-448l6-151-88 14zm-6-366L950 47l-2 134zM597 1172l56-73-118-34z" fill="#fff" stroke="#eee" stroke-width="1.5"/><path d="M173 1076l107-22-85-79zm-328-349l98 104 21-105zm-4-428l-29 195 33-99zm901 643l97 10 5-104z" fill="#fff" stroke="#eee" stroke-width="1.5"/><path d="M823 1056l16-104-97-10zM489-168l-85-25 9 133zM-179 81l39 100 61-15zM948 181l2-134-122 13zm109-20l-109 20 38 80zM735-155l-97-32 8 111z" fill="#fff" stroke="#eee" stroke-width="1.5"/><path d="M489-168l149-19-234-6zM950 47L846-70 828 60zM173-71L32-70 64 60zm231-122l-144 8L413-60zm-144 8l-97 36 10 78zm-448 679l33 233 6-84zm39 149l-6 84 119-1zm1230 97l5-119-101 20zm-18-213l103-15-97-136z" fill="#f8f8f8" stroke="#eee" stroke-width="1.5"/><path d="M1081 740l-96-99-29 111zM-51 72l-128 9 100 85zM57-148L32-70l141-1zm678-7l-89 79 71 12zM985 963l6-132-147 17z" fill="#fff" stroke="#eee" stroke-width="1.5"/><path d="M823-154l-88-1-18 91zm111-7l-111 7 23 84zm161 422l-38-100-71 100zm0 0H986l83 115zm73 27l-73-27-26 115zm-571 884l-62-107 4 128zm-62-107l118 34-14-128zm-255-11l1 112 102-115zM71 951l102 125 22-101z" fill="#fff" stroke="#eee" stroke-width="1.5"/><path d="M54 1104l119-28L71 951zM-76 933l145-90-126-12zm729 166l92-23-106-105zm186-147l146 11-141-115zm152-121l90-91-125 12zM846-70l-23-84-106 90zm-111-85l88 1-185-33zm254 79l-143 6L950 47zM32-70l-72-6-11 148zm131-79l-106 1 116 77z" fill="#fff" stroke="#eee" stroke-width="1.5"/><path d="M260-185L57-148l106-1zM-189 851l113 82 19-102zm934 225l78-20-81-114zm246-245l104 23-14-114zM57-148l-97 72 72 6zm1146 750l-37-90-80 109z" fill="#f8f8f8" stroke="#eee" stroke-width="1.5"/><path d="M1086 621l80-109-103 15zM-187-80l8 161 128-9zm47 261l-39-100 20 218z" fill="#fff" stroke="#eee" stroke-width="1.5"/><path d="M-159 299l-20-218-9 413zm1325 213l13-115-110-21zm-71-251l76-72-114-28zm-922 815l108 90-1-112z" fill="#fff" stroke="#eee" stroke-width="1.5"/><path d="M161 1160l120 6-108-90zm256 34l118-129-152-14zm236-95l98 89-6-112zm178 75l111-110-119-8zm226-1013l47-82-154-32zm122 236l-11-109-99 88zm-237 667l43-101-146-11z" fill="#fff" stroke="#eee" stroke-width="1.5"/><path d="M281 1166l136 28-34-143zm136 28l122-1-4-128zm-605-700l-1 357 34-124zm33 233l-34 124 132-20zm1326-538l-67-110-47 82zM1062-29l-73-47-39 123zM-24 1058l95-107-147-18zm0 0l78 46 17-153zm1183-296l44-160-117 19zM985 963l110-109-104-23zM54 1104l107 56 12-84z" fill="#f8f8f8" stroke="#eee" stroke-width="1.5"/><path d="M281 1166l-229 50 365-22zm-428-220l123 112-52-125zM1213 40l-42 149-3 99z" fill="#fff" stroke="#eee" stroke-width="1.5"/><path d="M1168 288l3-99-76 72zm-9 474l-73-141-5 119zm7-250l37 90-24-205zm13-115l34-357-45 248zM-189 851l42 95 71-13z" fill="#fff" stroke="#eee" stroke-width="1.5"/><path d="M1095 854l64-92-78-22zm118-814l-151-69 42 108z" fill="#fff" stroke="#eee" stroke-width="1.5"/><path d="M1104 79l-42-108-112 76zM989-76l-55-85-88 91zm-166-78l111-7-296-26z" fill="#f8f8f8" stroke="#eee" stroke-width="1.5"/><path d="M1091-162l-157 1 55 85zm117 1144l-28-157-85 29zm-385 74l119 8-103-112zm8 118l-8-118-78 20zm-80 14l-98-89-56 73z" fill="#fff" stroke="#eee" stroke-width="1.5"/><path d="M539 1193l212-5-154-16zM-40-76l-147-4L-51 72zm97-72l-129-25 32 97z" fill="#fff" stroke="#eee" stroke-width="1.5"/><path d="M260-185l-332 12 129 25z" fill="#fff" stroke="#eee" stroke-width="1.5"/><path d="M-170-181l98 8 332-12zm921 1369l80-14-86-98zM-72-173l-115 93 147 4zM-179 81l-8-161-1 574z" fill="#f8f8f8" stroke="#eee" stroke-width="1.5"/><path d="M-188 494l1-574-2 931zm1283 360l85-29-21-63z" fill="#fff" stroke="#eee" stroke-width="1.5"/><path d="M1159 762l21 63 23-223zm-88 229l24-137-110 109z" fill="#fff" stroke="#eee" stroke-width="1.5"/><path d="M942 1064l129-73-86-28zm133 24l-4-97-129 73zM54 1104l-2 112 109-56z" fill="#fff" stroke="#eee" stroke-width="1.5"/><path d="M161 1160l-109 56 229-50zm256 34l-365 22 487-23zm763 11l-82-8-347-9zm-1220-13l92 24 2-112z" fill="#f8f8f8" stroke="#eee" stroke-width="1.5"/><path d="M-40 1192l94-88-78-46zM1062-29l29-133-102 86zm109 218l42-149-109 39zm32 413l10-562-34 357zM-147 946l5 144 118-32z" fill="#fff" stroke="#eee" stroke-width="1.5"/><path d="M-189 851l47 239-5-144zM-72-173l-98-8-17 101zm476-20l-574 12 430-4zm530 32l157-1-453-25zm282 101l-125-102-29 133zM-142 1090l102 102 16-134zm973 84l127 9-16-119zm240-183l137-9-113-128z" fill="#fff" stroke="#eee" stroke-width="1.5"/><path d="M751 1188l207-5-127-9z" fill="#fff" stroke="#eee" stroke-width="1.5"/><path d="M1098 1197l-140-14-207 5zm-140-14l117-95-133-24zM1213 40l3-100-154 31zm2 1038l1-1138-3 100z" fill="#f8f8f8" stroke="#eee" stroke-width="1.5"/><path d="M1203 602l12 476-2-1038zm-23 223l28 157-5-380zm35 253l-7-96-137 9zm0 0l-144-87 4 97zm-1357 12l-26 94 128 8z" fill="#fff" stroke="#eee" stroke-width="1.5"/><path d="M-40 1192l-128-8 220 32zm-149-341l21 333 26-94zM1216-60l-11-99-114-3z" fill="#fff" stroke="#eee" stroke-width="1.5"/><path d="M1091-162l114 3-567-28zM958 1183l140 14-23-109zm222 22l-429-17-212 5zm28-223l7 96-12-476zm-28 223l35-127-140 10z" fill="#fff" stroke="#eee" stroke-width="1.5"/><path d="M1098 1197l82 8-105-117zM52 1216l1128-11-641-12z" fill="#fff" stroke="#eee" stroke-width="1.5"/></svg>
