<?xml version="1.0" standalone="no"?>
<!DOCTYPE svg PUBLIC "-//W3C//DTD SVG 20010904//EN"
 "http://www.w3.org/TR/2001/REC-SVG-20010904/DTD/svg10.dtd">
<svg version="1.0" xmlns="http://www.w3.org/2000/svg"
 width="512.000000pt" height="512.000000pt" viewBox="0 0 512.000000 512.000000"
 preserveAspectRatio="xMidYMid meet">
<metadata>
Created by potrace 1.11, written by Peter Selinger 2001-2013
</metadata>
<g transform="translate(0.000000,512.000000) scale(0.100000,-0.100000)"
fill="#000000" stroke="none">
<path d="M2400 5114 c-643 -55 -1176 -291 -1614 -714 -418 -404 -677 -914
-762 -1505 -24 -165 -24 -505 0 -670 81 -560 315 -1044 696 -1439 404 -418
914 -677 1505 -762 165 -24 505 -24 670 0 998 144 1794 810 2100 1757 86 265
119 482 119 779 0 297 -33 514 -119 779 -305 945 -1111 1620 -2095 1756 -112
15 -411 27 -500 19z m592 -763 c234 -51 452 -157 603 -294 l50 -45 -60 -122
c-68 -138 -105 -180 -161 -180 -41 0 -60 9 -174 85 -213 141 -401 195 -630
182 -196 -12 -332 -63 -444 -168 -105 -98 -153 -201 -163 -349 -9 -143 29
-250 123 -344 105 -106 229 -167 565 -281 537 -183 708 -274 854 -458 137
-171 194 -397 166 -652 -58 -519 -374 -864 -894 -977 -135 -29 -440 -32 -587
-5 -287 52 -562 187 -757 371 l-78 73 75 124 c87 143 121 173 186 166 26 -3
61 -18 96 -43 31 -21 99 -70 151 -107 214 -151 450 -220 696 -202 408 29 660
275 661 645 0 158 -38 251 -148 358 -95 92 -223 152 -550 258 -467 151 -603
215 -756 355 -104 95 -176 214 -223 366 -24 81 -26 102 -27 273 0 174 1 190
27 275 118 385 413 633 847 711 114 20 427 12 552 -15z"/>
</g>
</svg>
