<svg version="1" xmlns="http://www.w3.org/2000/svg" width="682.667" height="682.667" viewBox="0 0 512.000000 512.000000"><path d="M237.1 1.1C145.8 8.1 65.4 63 25.5 145.5c-37.1 76.9-32.8 168 11.5 242.3 20.1 33.8 53.4 67.1 87.2 87.2 81.8 48.7 181.8 48.7 263.6 0 33.8-20.1 67.1-53.4 87.2-87.2 48.7-81.8 48.7-181.8 0-263.6-20.1-33.8-53.4-67.1-87.2-87.2-35.3-21-72.7-32.8-114.3-35.9-15.4-1.2-21-1.2-36.4 0zM280 68c23.6 2.2 50.8 7.7 75 15.3l7.5 2.4.3 24 .2 24.1-13.5-5.9c-42.7-18.6-82.4-24.9-116.3-18.4-35.4 6.8-55.2 27.4-55.2 57.5 0 21 8.6 35.4 26.1 43.8 11.2 5.4 21.2 8.2 52.9 14.7 41.9 8.6 56.7 12.9 72.5 20.7 15 7.5 30.5 20.2 38.8 31.9 19.6 27.6 22.2 77.1 5.8 109.7-16.4 32.6-51.3 51.5-104.1 56.2-39.2 3.5-81-2.2-127.1-17.2l-13.4-4.4-.3-25.7-.2-25.7 9.2 4.9c48.9 26.1 103.4 35.4 144.5 24.6 32.9-8.6 50.3-29.2 50.3-59.5 0-23.1-10.3-40.7-29.5-50.7-14.4-7.5-24.5-10.5-54-16.3-44.9-8.8-65.6-15.8-85.2-28.6-8.4-5.5-19.3-16.8-24.1-24.9-15.6-26.5-16.3-67.5-1.7-96.5 9-17.9 26.5-34.1 46.8-43.5C209.7 69.3 244 64.8 280 68z"/></svg>