<svg version="1" xmlns="http://www.w3.org/2000/svg" width="1365.333" height="1365.333" viewBox="0 0 1024.000000 1024.000000"><path d="M487.5 1C373.4 6.8 265.4 49.8 179 123.6c-14.8 12.6-42.8 40.6-55.4 55.4C61.4 251.8 20.4 341.5 6.1 436 2.2 462.1.8 482.2.8 512c0 80.7 17.2 154.7 52.7 226.5 25.8 52 55.8 93.9 97 135 41.1 41.2 83 71.2 135 97 71.8 35.5 145.8 52.7 226.5 52.7 80.7 0 154.7-17.2 226.5-52.7 52-25.8 93.9-55.8 135-97 41.2-41.1 71.2-83 97-135 28.3-57.2 44.7-115.2 51.1-181 3.4-35.1 1.9-84.2-3.7-121.5-14.3-94.5-55.3-184.2-117.5-257-12.6-14.8-40.6-42.8-55.4-55.4C772.2 61.4 682.5 20.4 588 6.1 557.6 1.5 516.9-.5 487.5 1zM545 128c55.7 3.5 117 15.3 171.3 33l12.7 4.1V263l-5.7-2.6c-83.1-37.8-146.8-53.1-211.8-51.1-92.2 2.9-147 37.2-158.2 99.2-2.4 13-2.1 36.1.4 48.5 10 47.5 43.2 69.5 131.8 87.5 67.2 13.6 92.6 19 104.2 22 60.8 15.9 107.5 41.2 136.5 74 23.2 26.3 37.5 56.7 43.7 93.5 7.1 41.3 3.8 88.2-8.5 124.4-4.7 13.9-15.1 34.2-23.1 45.5-36 50.2-97.5 80.6-183.3 90.5-87.6 10.2-177.7-1.4-279.5-35.8-10.4-3.5-19.8-6.7-20.7-7.1-1.7-.7-1.8-4.1-1.8-52.4v-51.8l27.3 13.7c71.9 36 133.2 52.8 199.7 54.7 81.3 2.3 141.2-19.8 169.8-62.5 14.2-21.2 20.4-48.7 18.1-79.5-2.7-36.7-17.1-63.1-45.2-83.1-16.3-11.6-44.6-23.4-74.2-31.1-7.1-1.8-32.8-7.2-57-12-24.2-4.7-51.6-10.6-61-13-65.1-16.5-112-41-139.8-73-21.2-24.5-33.6-54-38.8-92.5-1.9-13.9-1.6-48.8.5-63.3 6.8-47.3 26.1-84.6 59.3-114.8 52-47.5 132.2-69.1 233.3-62.9z"/></svg>