<svg version="1.0" xmlns="http://www.w3.org/2000/svg" width="1365.333" height="1365.333" viewBox="0 0 1024 1024"><path d="M487.5 1C373.4 6.8 265.4 49.8 179 123.6c-14.8 12.6-42.8 40.6-55.4 55.4C61.4 251.8 20.4 341.5 6.1 436 2.2 462.1.8 482.2.8 512c0 80.7 17.2 154.7 52.7 226.5 25.8 52 55.8 93.9 97 135 41.1 41.2 83 71.2 135 97 71.8 35.5 145.8 52.7 226.5 52.7 80.7 0 154.7-17.2 226.5-52.7 52-25.8 93.9-55.8 135-97 41.2-41.1 71.2-83 97-135 28.3-57.2 44.7-115.2 51.1-181 3.4-35.1 1.9-84.2-3.7-121.5-14.3-94.5-55.3-184.2-117.5-257-12.6-14.8-40.6-42.8-55.4-55.4C772.2 61.4 682.5 20.4 588 6.1 557.6 1.5 516.9-.5 487.5 1zm73 128c51 4.5 106.1 15.9 156.3 32.1l12.2 4V263l-5.7-2.6c-43-19.3-71.6-29.8-104.4-38.4-50.2-12.9-100.6-16.2-146.4-9.4-50.1 7.4-87.1 28.3-106.3 60.1-11.2 18.6-16.5 45-14.2 70.5 1.5 15.9 4 25.3 10 37.5 10.8 22 30 36.4 64.3 48.2 23.2 8 32.6 10.2 103.7 24.7 60.1 12.2 78 16.9 106.5 28.1 65.9 25.9 107.2 65.8 125.8 121.3 13.9 41.5 15.1 97.5 3.2 141.7-23 85.4-94.6 136.3-210.5 149.7-87.6 10.2-178.2-1.4-279.5-35.7-10.4-3.6-19.8-6.8-20.7-7.2-1.7-.7-1.8-4.1-1.8-52.5v-51.7l26.3 13.2c27.3 13.7 42.2 20.2 66.9 29.2 74.3 26.8 154.1 33.6 216.8 18.2 52.5-12.9 87.3-41.6 99.9-82.4 5.3-17.2 7-46.2 3.7-64.7-6.9-38.3-26.7-63.5-64.9-82.2-25.1-12.4-47.6-18.8-103.2-29.6-69.3-13.6-97.4-21-128.5-34.2-73.4-31.1-108.4-74.3-118.1-145.8-1.9-14.1-1.7-48.9.5-63.3 2.1-14.7 6.7-33.3 11.1-44.6 22.9-60.1 76.1-103.8 149.1-122.6 20.3-5.3 45.5-9.1 71.4-10.9 10.1-.7 64.3.3 76.5 1.4z"/></svg>